<svg xmlns="http://www.w3.org/2000/svg" width="1200" height="340" viewBox="0 0 1200 340" role="img" aria-labelledby="title desc">
  <title id="title">Controlled Procurement Agent</title>
  <desc id="desc">Enterprise agentic AI portfolio project with deterministic policy and human approval.</desc>
  <defs>
    <linearGradient id="bg" x1="0" y1="0" x2="1" y2="1">
      <stop offset="0%" stop-color="#07111f"/>
      <stop offset="55%" stop-color="#111827"/>
      <stop offset="100%" stop-color="#08131f"/>
    </linearGradient>
    <linearGradient id="accent" x1="0" y1="0" x2="1" y2="0">
      <stop offset="0%" stop-color="#22d3ee"/>
      <stop offset="48%" stop-color="#8b5cf6"/>
      <stop offset="100%" stop-color="#34d399"/>
    </linearGradient>
    <pattern id="grid" width="40" height="40" patternUnits="userSpaceOnUse">
      <path d="M40 0H0V40" fill="none" stroke="#ffffff" stroke-opacity=".035"/>
    </pattern>
  </defs>
  <rect width="1200" height="340" rx="24" fill="url(#bg)"/>
  <rect width="1200" height="340" rx="24" fill="url(#grid)"/>
  <rect x="66" y="54" width="94" height="5" rx="2.5" fill="url(#accent)"/>
  <text x="66" y="126" fill="#f8fafc" font-family="Inter,Segoe UI,Arial,sans-serif" font-size="48" font-weight="700">Controlled Procurement Agent</text>
  <text x="66" y="174" fill="#cbd5e1" font-family="Inter,Segoe UI,Arial,sans-serif" font-size="23" font-weight="600">Agentic reasoning. Deterministic policy. Human authority.</text>
  <text x="66" y="220" fill="#94a3b8" font-family="Inter,Segoe UI,Arial,sans-serif" font-size="18">A production-minded enterprise AI workflow — not an autonomous spending bot.</text>
  <text x="66" y="274" fill="#64748b" font-family="Inter,Segoe UI,Arial,sans-serif" font-size="14">TOOLS · STRUCTURED OUTPUT · POLICY GATES · EVALS · AUDIT · HUMAN-IN-THE-LOOP</text>
  <g transform="translate(842 66)" fill="none" stroke-linecap="round" stroke-linejoin="round">
    <rect x="0" y="0" width="122" height="48" rx="12" stroke="#22d3ee" stroke-opacity=".6"/>
    <text x="61" y="29" text-anchor="middle" fill="#cbd5e1" stroke="none" font-family="Inter,Segoe UI,Arial,sans-serif" font-size="14">Request</text>
    <path d="M61 48v28" stroke="#64748b"/><path d="m56 70 5 6 5-6" stroke="#64748b"/>
    <rect x="0" y="76" width="122" height="48" rx="12" stroke="#8b5cf6" stroke-opacity=".65"/>
    <text x="61" y="105" text-anchor="middle" fill="#cbd5e1" stroke="none" font-family="Inter,Segoe UI,Arial,sans-serif" font-size="14">AI + Tools</text>
    <path d="M61 124v28" stroke="#64748b"/><path d="m56 146 5 6 5-6" stroke="#64748b"/>
    <rect x="0" y="152" width="122" height="48" rx="12" stroke="#34d399" stroke-opacity=".65"/>
    <text x="61" y="181" text-anchor="middle" fill="#cbd5e1" stroke="none" font-family="Inter,Segoe UI,Arial,sans-serif" font-size="14">Policy Gate</text>
    <path d="M61 200v28" stroke="#64748b"/><path d="m56 222 5 6 5-6" stroke="#64748b"/>
    <rect x="0" y="228" width="122" height="48" rx="12" stroke="#f59e0b" stroke-opacity=".7"/>
    <text x="61" y="257" text-anchor="middle" fill="#cbd5e1" stroke="none" font-family="Inter,Segoe UI,Arial,sans-serif" font-size="14">Human</text>
  </g>
</svg>
